# xmcd CD database file
#
# Track frame offsets:
#	150
#	13218
#	27117
#	44092
#	56002
#	72033
#	89731
#	107255
#	123735
#	142267
#	158784
#	177166
#	195302
#	209223
#	226598
#
# Disc length: 3288 seconds
#
# Revision: 1
# Processed by: cddbd v1.5.1PL2 Copyright (c) Steve Scherf et al.
# Submitted via: CDex 1.51
#
DISCID=d70cd60f
DTITLE=Various Artist - スタまにシリーズ NG騎士ラムネ＆40
DYEAR=2005
DGENRE=Pop
TTITLE0=熱血!!　勇者ラムネス
TTITLE1=男と女はパピプペポ
TTITLE2=めざせ!　１番!!
TTITLE3=シアワセになるでんna
TTITLE4=闘え!!　キングスカッシャー
TTITLE5=L! O! V! E!! Out-Sider
TTITLE6=イクゼ!　パワートリップ!!
TTITLE7=四種の神器
TTITLE8=Que Vadis?〜何処へ〜
TTITLE9=プワゾン・チュチュ
TTITLE10=アドレナリンは最高潮!!
TTITLE11=アンタとワテはチャンバラバンバラバ
TTITLE12=飛び出せ!　セーシュン
TTITLE13=トリプル・ロマンス
TTITLE14=ララバイ☆あ・げ・た・い
EXTD=YEAR: 2005
EXTT0=
EXTT1=
EXTT2=
EXTT3=
EXTT4=
EXTT5=
EXTT6=
EXTT7=
EXTT8=
EXTT9=
EXTT10=
EXTT11=
EXTT12=
EXTT13=
EXTT14=
PLAYORDER=
